/* XPM */
static char *result[] = {
/* columns rows colors chars-per-pixel */
"60 60 228 2 ",
"   c #1F5FBF",
".  c #215EBF",
"X  c #1D62BF",
"o  c #2364BF",
"O  c #2A64BF",
"+  c #044DCD",
"@  c #0B4DCD",
"#  c #114FCD",
"$  c #0754C7",
"%  c #0C53CD",
"&  c #0D5BCA",
"*  c #135BC6",
"=  c #1C5CC3",
"-  c #1255CC",
";  c #1956CD",
":  c #145BCB",
">  c #1A5CCB",
",  c #0446D5",
"<  c #044CD4",
"1  c #0A4DD3",
"2  c #0346DC",
"3  c #044BDC",
"4  c #094EDD",
"5  c #0551D3",
"6  c #0C53D3",
"7  c #0C59D1",
"8  c #0650D9",
"9  c #0A52DB",
"0  c #1254D2",
"q  c #145AD2",
"w  c #1B5CD2",
"e  c #225DC1",
"r  c #215ECD",
"t  c #1567C7",
"y  c #1B63C4",
"u  c #1D6DC1",
"i  c #1B63CC",
"p  c #1C6ACC",
"a  c #1D74C3",
"s  c #1C7ACB",
"d  c #0F62D0",
"f  c #1760D2",
"g  c #2162C5",
"h  c #2964C7",
"j  c #246DC2",
"k  c #2C6CC1",
"l  c #2263CD",
"z  c #236CCB",
"x  c #2A6BCD",
"c  c #326CC2",
"v  c #386DC0",
"b  c #316ECC",
"n  c #2473C2",
"m  c #2C73C2",
"M  c #237CC3",
"N  c #2E7CC4",
"B  c #2572CB",
"V  c #2C74CB",
"C  c #2A7ACC",
"Z  c #3273C2",
"A  c #3975C2",
"S  c #347BC4",
"D  c #3C7CC4",
"F  c #3374CB",
"G  c #3A75CB",
"H  c #347ACC",
"J  c #3B7CCB",
"K  c #2667D1",
"L  c #2D72D1",
"P  c #0146E4",
"I  c #024AE3",
"U  c #0B4EE1",
"Y  c #0047EB",
"T  c #0149EC",
"R  c #0049F4",
"E  c #004CFE",
"W  c #4076C3",
"Q  c #437EC5",
"!  c #437CCB",
"~  c #2684C6",
"^  c #2C85C6",
"/  c #2E85CA",
"(  c #278CC8",
")  c #3482C5",
"_  c #3C82C6",
"`  c #338AC7",
"'  c #3A85CA",
"]  c #338DCA",
"[  c #3A8DC9",
"{  c #2997CC",
"}  c #3493CB",
"|  c #3C95CB",
" . c #339ACD",
".. c #3A9BCE",
"X. c #3DA0CF",
"o. c #2BAAD3",
"O. c #33A4D1",
"+. c #3AA3D1",
"@. c #32ACD4",
"#. c #3CACD5",
"$. c #25B1D7",
"%. c #38B7D9",
"&. c #4485C6",
"*. c #4B84C6",
"=. c #458AC7",
"-. c #4484CB",
";. c #4C84CD",
":. c #438BCC",
">. c #4A8CCB",
",. c #5489CB",
"<. c #528CCB",
"1. c #4394CC",
"2. c #4C94CD",
"3. c #449ACD",
"4. c #4D9BCD",
"5. c #5394CC",
"6. c #5C92CD",
"7. c #529CCF",
"8. c #5C9BCE",
"9. c #4E8ED0",
"0. c #4397D1",
"q. c #4B9BD1",
"w. c #699CCE",
"e. c #669CD1",
"r. c #4DA1CF",
"t. c #45A5D2",
"y. c #4DA4D2",
"u. c #42ACD5",
"i. c #4BACD5",
"p. c #54A5D2",
"a. c #5DA3D2",
"s. c #54ACD5",
"d. c #5CAAD5",
"f. c #48B5D8",
"g. c #4CB4D8",
"h. c #45BCDB",
"j. c #52B1D7",
"k. c #5AB6DA",
"l. c #55BBDC",
"z. c #63A2D2",
"x. c #69A5D3",
"c. c #63ACD5",
"v. c #6CACD5",
"b. c #72ABD5",
"n. c #79AAD4",
"m. c #67B7DA",
"M. c #6CB3D9",
"N. c #63BADC",
"B. c #73B4D9",
"V. c #79B5D9",
"C. c #38C1DE",
"Z. c #3AC8E2",
"A. c #43C1DE",
"S. c #4AC1DE",
"D. c #55C2DF",
"F. c #5CC1DE",
"G. c #66C2DF",
"H. c #75C1DF",
"J. c #43CBE3",
"K. c #4CCBE3",
"L. c #59C5E0",
"P. c #53CCE3",
"I. c #5CCCE4",
"U. c #48D7E9",
"Y. c #55D1E6",
"T. c #5BD2E6",
"R. c #59D6E9",
"E. c #54DAEB",
"W. c #5CDBEB",
"Q. c #64C5E0",
"!. c #69CAE3",
"~. c #78CAE3",
"^. c #67D3E7",
"/. c #65DCEC",
"(. c #6CDCEC",
"). c #77D7E9",
"_. c #56E1EE",
"`. c #52E5F1",
"'. c #5DE4F0",
"]. c #5EEBF3",
"[. c #63E1EE",
"{. c #6DE1EE",
"}. c #74E1EF",
"|. c #64E5F1",
" X c #6DE5F0",
".X c #65EBF4",
"XX c #6BEBF3",
"oX c #74E5F0",
"OX c #7DE4F0",
"+X c #73EBF3",
"@X c #7CEDF4",
"#X c #69F2F7",
"$X c #79F3F8",
"%X c #87BADB",
"&X c #8AC3DF",
"*X c #89CBE3",
"=X c #92CEE6",
"-X c #87D5E8",
";X c #8AE6F1",
":X c #83EBF3",
">X c #88EAF3",
",X c #84F1F7",
"<X c #8AF1F7",
"1X c #83F4F9",
"2X c #89F6FA",
"3X c #8CFAFC",
"4X c #95F4F9",
"5X c #9AF4F9",
"6X c #9AF5F9",
"7X c #A3F4F9",
"8X c #A8F7FA",
"9X c #ADF5F9",
"0X c #A5FAFC",
"qX c #B4F6FA",
"wX c #BCF5F9",
"eX c #B5F9FC",
"rX c #BAFAFC",
"tX c #C2F6FA",
"yX c #CCF6FA",
"uX c #C4FAFC",
"iX c #CCFAFC",
"pX c #D2F6FA",
"aX c #D3FBFC",
"sX c #DBFBFD",
"dX c #E3FBFD",
"fX c #ECFCFD",
"gX c #F4FDFE",
"hX c #FDFEFE",
/* pixels */
"E E E E E E E E E E E E E E E E E E E E E E E E E E E E E E E E R E E E E E E E E E E E E E E E E E E E E E E E E E E E ",
"E E E E E E E E E E E E E E E E E E E E E E E E E E E E E E E E E R R E E E E E E E E E E E E E E E E E E E E E E E E E ",
"E E E E E E E E E E E E E E E E E E E E E E E E E E E E R T R E T P P R R P R E E R E E E E E E E E E E E E E E E E E E ",
"E E E E E E E E E E E E E E E E T T R R E R T 9 R E E R P P R R Y < : 1 < - T R 9 3 E E E E E E E E E E E E E E E E E E ",
"E E E E E E E E E E E E E E E R q q Y P T R 4 H P E E R 2 , P E R < N t p :.3 P p % R E E E E E E E E E E E E E E E E E ",
"E E E E E E E E E E E E E E R R 8 C 5 P P R 2 F w R R P , , 2 T Y , u } { ..5 5 H 9 R E E E E E E E E E E E E E E E E E ",
"E E E E E E E E E E E E E Y 4 T P i p , 2 R P V x Y Y K % , 2 2 2 1 @ % y 2.$ p x P E E E E E E E E E E E E E E E E E E ",
"E E E E E E E E E E R R R 3 V 7 P 3 V 0 2 P Y i J 2 P G t 2 Y P 2 P 2 2 w 6.$ J * P E E E E E E E E E E E E E E E E E E ",
"E E E E E E E E E E T 7 P Y : H i < z l 2 2 Y 7 -.6 P x t 2 R R R R P , b D t _ 0 T E E E E E E E E E E E E E E E E E E ",
"E E E E E E E E E E Y z 7 R Y 6 N z : V 2 2 P 3 F F , l B - U R T T @ > ,.y V ;.2 E E E E E E E E E E E E E E E E E E E ",
"E E E E E E E E E E T f x P E Y : ' t / i 2 2 3 r 8.F :.3.Z g = h D 1.x.b.$ i ! P R R E R R E E E E E E E E E E E E E E ",
"E E E E E R P Y Y R R 4 F 0 Y R 4 :.:.| 2.% & a k e.V.%Xk.D O o >.v.3.a.c.p G H 2 Y P I P T R E E E E E E E E E E E E E ",
"E E E E E U i : % , P P ; D 0 2 1 # * # ~ 2.o O O =.w.&Xt.>.>.2.v.7.S >.k.p.x.S % , 2 P Y Y P R E E E E E E E E E E E E ",
"E E E E E T f C J g , 2 @ G ! 1 P , - g O p.i.o Q O w.%Xj.B.c.a.a.&.m a.l.V.5.m j > P R R 2 K U R T P Y T R R R E E E E ",
"E E E E E E T 3 7 F - P 2 b b P Y w 5.c.v.M.N.} _ =.B.w.` =.O _ D n 2.!.L.z.Z   o O > 2 P - ! # 3 - # 2 2 P P R E E E E ",
"E E E E E E E E Y - F 1 0 ! 1 R 4 w.e.5.8.=.[ g.j.B.M.<.N _ ` =.S ^ H.^.q.Z . . e   y = @ h ;.1 @ F > Y T T R R E E E E ",
"E E E E E E E T 9 $ C -.5.6.> 9 b n.*.c D O ) i.P.c.r.=.[ | 3.3. .u.~.u.) X o o X X X O G ! x , > ! 0 Y R R E E E E E E ",
"E E E E E E E P i ' [  .7.;.! 6.b.%X,.O O D =.O.A.j.r.3.X.u.f.#.@.K.l.X.{ ~ O o X X O 6.n.W @ = ;.h , 2 T R R E E E E E ",
"E E E E E E E R Y 5 K H ' F g D ,.w.W O _ ` [ X.C.Y.k.f.S.S.S.A.U.E.A.@.{ } ` N O O w.%X,.Z k ,.l 2 T T P 2 P R E E E E ",
"E E E E E T 3 P R R Y 2 6 C 1.k O O O Q O _ O.f.C.`.R.D.I.W.W._.[.W.K.%.@. .{ ` p.%Xn.Q j ! z.j , T E E R T P T R E E E ",
"E E E E E 3 V V 6 P P 2 1 p u. .O O _ 5.5.#.S.S.Y.'.[.{.}.oXoX@X+X(.R.K.A.#.@.j.&X%X=.O O s.{ & 2 2 T R E E R R R R E E ",
"E E E E E T 3 B :.9.G J c.M.G.!.g.u.N.H.H.T.U.R.[.+X@X:X>X4X4X6X;X;X}.(.Y.K.K.-X&X5.N o } t.o = Y P I P T R E E E E E E ",
"E E E E E E Y + / 0.H 5.=X=XN.d.i.O.@.%.l.G.W.[.oX:X4X7X9XqXrXqX9X7X>X:XoX/.).-Xk.} (  .c.<.O X U E T P 2 2 R E E E E E ",
"E E E E R 3 % V F + P < S B.B.D O ^ ( o.%.D.{.oX>X5XqXtXpXsXsXpXyXtXqX5X:XOXoX.XA.C.D.c.=.O X o 0 R E R Y 2 Y R E E E E ",
"E E E E T i ' J - , P 2 m 3.H.p._ O { @.A.R. X:X5XwXpXpXfXfXfXfXdXsXyXqX7X>X$XXX].{.h.{ M O A O h T R E E Y 2 P R E E E ",
"E E E E R 8 7 3 , , , : q.N.m.k.t.{ t.J._.[.@X5XwXpXdXgXhXhXhXgXgXfXdXaXeX6X,XXX].U.O.) Z o o o g # P Y R R T Y T R E E ",
"E E E E E R T 2 2 I P p j.[ N } g.A.J.E.'.+X2X9XyXdXgXgXhXhXhXhXhXgXfXsXuX8X>X+X.XU.#.} M X X = o 1 P , 1 8 < P T R E E ",
"E E E E R Y P P T E R L c.Z O N  .%.C.J.|.$X6XwXpXfXhXhXhXhXhXhXhXhXgXfXaXqX5X$X.XE.S.#.` m o o   % 2 : N / B & Y R E E ",
"E E R R Y 2 2 R R E R L c.O O O =.| #.K.XX1X7XyXdXhXhXhXhXhXhXhXhXhXhXfXsXuX0X1X.X`.U.%.( n O Z A ! G G i % + < P T E E ",
"E R 3 2 P T R R E E R V c.N o M [ | j.W.+X,X7XyXfXgXhXhXhXhXhXhXhXhXhXfXsXiX0X2X+X/.D.s.=.S _ 5.x.9.w 1 , l x 6 Y E E E ",
"E R 2 > < T R E E R 5 ` j.o X a ( { %._.XX,X9XpXfXgXhXhXhXhXhXhXhXhXhXgXdXiX8X<X XP.f.r.3.7.z.5.A r P 1 b F : I E E E E ",
"E E R 7 C p 7 9 8 & N y.X.o X a { o.C.].XX:X9XpXfXgXhXhXhXhXhXhXhXhXhXfXdXuX8X<XoXW.I.F.H.M.&.O o = > F r P T E E E E E ",
"E E E P & ( O.q.' V y j k e X a g.A.J..X.X@X7XyXdXgXhXhXhXhXhXhXhXhXgXfXsXuX0X1XXX`.U.C.$.( o o u N H 0 T E E E E E E E ",
"E E R 1 z ] C 7 < 1 , = y X X ^ A.%.Z.`.'.+X5XrXsXfXgXhXhXhXhXhXhXhXgXfXaXwX4X+XW.Y.h.+.~ X X (  .3.7 R E E E R R E E E ",
"E E P i f + , Y R T P i =._ :.N.^.%.J.]..X+X<XqXiXdXfXgXhXhXhXhXhXgXfXsXuX9X<X{.Y.h.X.1.=.O r.c.p.p Y R R Y 3 2 T E E E ",
"E E R P Y 2 i 6 3 2 - ;.M.B.B.H.G.i.D.#X#X.X@X6XrXaXdXfXgXgXgXgXfXfXsXiXrX5X:X(.Q.k.4.` 3.p.p._ c 0 P P 0 l x 1 R E E E ",
"E E E E E I f H G ! ;.v &.*.Q a.k.} l.].#X#X+X<X7XrXaXsXdXdXfXdXdXaXiXeX0X3X@X/.D.p.5.8.B.a._ o * , : V ! l 4 T E E E E ",
"E E E E E E T 7 w 0 ; 1 > O o 2.z._ i.|..X.X+X@X<X0XrXuXiXaXaXaXiXtXeX6X3X$X+X|.F.i.t.H.v.*.*.O g h J j + Y R E E E E E ",
"E E E E E E E R R R P R U e O w.B.1.s.^.'.{.XX[.+X<X6X0XeXrXrXrXeX8X6X2X$X.XW.Y.R.F.F.G.c.x.v.n.6.b 6 2 2 P E E E E E E ",
"E E E E E E E E E E E E R e O &.c.m.F.G.)./.{.{.}.+X3X3X4X4X0X6X3X3X2X|._.Y.P.i.X...| } O S &.=.r @ 2 R P 2 Y E E E E E ",
"E E E E E E E E E E E E P ; c Z =.m.=Xc.k.T.~.).^.[.$X$X1X$X4X,X@X@X{.Y.A.l.g.t.4.1.| =._ O o & 2 @ - 1 P 2 P E E E E E ",
"E E E E E E E E E E E R Y U g O &.&XB.) 3.~.N.).P.^.'.XX1X'.:X@XXX(.T.S.%.+.s.l.N.M.m.N.z.a.4.] C J -.J l P T E E E E E ",
"E E E E E E E E E E R E R Y 6 m b.*X=.o J V.k.G.D.T._.T.[.'.OX).R.{./.A.@.$.F.M.3.=.O O j m f w f 7 & d q Y R E E E E E ",
"E E E E E E R T P 4 9 4 3 < % <.*X7.Z o D N.k.O.g.f.U.g.%.K.-X~.h.l.D.K./.U.%.5.=._ O O e U R R R R R R R R E E E E E E ",
"E E E E E T 4 t H V J -.' J :.B.2.Z k c 5.H.j.^ ` X.A.t.( { c.*Xf.| ` } %.F.%.s.B.v.2.Z 6 E E E E E E E E E E E E E E E ",
"E E E E E I > i 7 1 % & i J 2.:.@ > o D d.r.k.` O } f.[ M M >.v.F.O._ O o _ ^ ~ =.>.D g T E E E E E E E E E E E E E E E ",
"E E E E R T P T R R Y T Y % J 0 , 2 > 1.4.` k.3.) O t.&.j m A <.j.g.c.' j o o u m k ; 2 Y E E E E E E E E E E E E E E E ",
"E E E E E E R E E E E E Y l l P 2 Y 5 4.O ^ N. .o O t._ o j c 5.a.~ x.H.p.~ o X y 6 P 2 Y E E E E E E E E E E E E E E E ",
"E E E E E E E E E E E E R 9 3 I 2 P z V $ ' y.a g m y.S m m c 5.v.o 2.d.3.y./ 0 Y 2 P 2 P R E E E E E E E E E E E E E E ",
"E E E E E E E E E E E E E E E R Y 7 J % + G p t = n p.) :.i.7.8.V.( p.-.y l f P R 2 P P 2 R E E E E E E E E E E E E E E ",
"E E E E E E E E E E E E E E E E Y z B , q H + 2 T : 2.} p...c.V.w.M | q R R R P P 2 2 Y 2 P R E E E E E E E E E E E E E ",
"E E E E E E E E E E E E E E E E P B & P w : , T E 9 q.| B < V V._ n K Y E E R 2 , 1 2 R Y 2 R E E E E E E E E E E E E E ",
"E E E E E E E E E E E E E E E E 8 V 3 R P 2 P R E 7 g.0.5 T P F e.:.8 R E R T 2 Y 2 2 E R 2 T E E E E E E E E E E E E E ",
"E E E E E E E E E E E E E E E R q C P E R T R E R d h.s 2 E R 1 :.K Y E E T 2 Y R P I R R Y R E E E E E E E E E E E E E ",
"E E E E E E E E E E E E E E E T p f T E E E E E T p @.s P E Y p z P E E R P P R E P 2 E E E E E E E E E E E E E E E E E ",
"E E E E E E E E E E E E E E E T q 7 R E E E E E P B s B P R 1 V 8 R E E T 2 R E E P 2 R E E E E E E E E E E E E E E E E ",
"E E E E E E E E E E E E E E E E P Y E E E E E R 4 6 < 6 T Y % 7 R E E E R T E E E T Y E E E E E E E E E E E E E E E E E ",
"E E E E E E E E E E E E E E E E E E E E E E E E T R R T R R Y R E E E E E E E E E E E E E E E E E E E E E E E E E E E E ",
"E E E E E E E E E E E E E E E E E E E E E E E E E E E E E E E E E E E E E E E E E E E E E E E E E E E E E E E E E E E E ",
"E E E E E E E E E E E E E E E E E E E E E E E E E E E E E E E E E E E E E E E E E E E E E E E E E E E E E E E E E E E E "
};
