/* XPM */
static char *result[] = {
/* columns rows colors chars-per-pixel */
"60 60 134 2 ",
"   c #74754D",
".  c #797948",
"X  c #636B5C",
"o  c #5D6A66",
"O  c #4D6379",
"+  c #506375",
"@  c #626D61",
"#  c #6E7661",
"$  c #747E6C",
"%  c #697774",
"&  c #60737D",
"*  c #857F40",
"=  c #9C8B24",
"-  c #8C8233",
";  c #918430",
":  c #92883F",
">  c #A18F25",
",  c #A59223",
"<  c #A99524",
"1  c #AE9925",
"2  c #A7952E",
"3  c #AC9C38",
"4  c #B7A128",
"5  c #BBA429",
"6  c #BFA82A",
"7  c #B9A534",
"8  c #C3AC2B",
"9  c #C8AF2C",
"0  c #CCB32D",
"q  c #D0B72E",
"w  c #D1B82E",
"e  c #D5BB30",
"r  c #D8BE31",
"t  c #DDC233",
"y  c #D7C03B",
"u  c #DFC63B",
"i  c #E1C633",
"p  c #E5C935",
"a  c #EACE36",
"s  c #E5CC3E",
"d  c #EED237",
"f  c #EDD23C",
"g  c #F1D437",
"h  c #F3D638",
"j  c #F6D939",
"k  c #FBDD3B",
"l  c #FEE03C",
"z  c #908D4E",
"x  c #95904C",
"c  c #888957",
"v  c #908F56",
"b  c #939156",
"n  c #B7AA49",
"m  c #ACA65E",
"M  c #838760",
"N  c #8B8E64",
"B  c #979761",
"V  c #9D9E66",
"C  c #9C9D69",
"Z  c #828D7A",
"A  c #87927F",
"S  c #8C9479",
"D  c #ACA964",
"F  c #A2A26B",
"G  c #B3AD61",
"H  c #A1A479",
"J  c #C7B84F",
"K  c #CCBC4A",
"L  c #D3BF47",
"P  c #C5BC67",
"I  c #DAC443",
"U  c #DFC841",
"Y  c #DECC5A",
"T  c #E2CB42",
"R  c #EED546",
"E  c #F5DA43",
"W  c #FCDF41",
"Q  c #F9DF4B",
"!  c #EDD85A",
"~  c #F5DD54",
"^  c #FEE143",
"/  c #FEE34B",
"(  c #FDE454",
")  c #FCE45B",
"_  c #DDCD6F",
"`  c #FEE766",
"'  c #FDE769",
"]  c #3F5E8E",
"[  c #395A93",
"{  c #31569E",
"}  c #1E4FB8",
"|  c #2B56AC",
" . c #2654B4",
".. c #2F5BB3",
"X. c #325DB1",
"o. c #315FBC",
"O. c #3D61A4",
"+. c #3B65B4",
"@. c #3863BA",
"#. c #3C68BB",
"$. c #5D758E",
"%. c #406099",
"&. c #4B6C9D",
"*. c #526F95",
"=. c #5B7593",
"-. c #5B799D",
";. c #6A7E8B",
":. c #476BA6",
">. c #4167AE",
",. c #436AAD",
"<. c #5073A9",
"1. c #456CB0",
"2. c #154ECE",
"3. c #1B51C3",
"4. c #1850CB",
"5. c #0D4CDA",
"6. c #144FD3",
"7. c #1551D5",
"8. c #1D56D3",
"9. c #1251DE",
"0. c #1854DB",
"q. c #2A5CC5",
"w. c #245ACC",
"e. c #285CC8",
"r. c #255CD1",
"t. c #0B4EE6",
"y. c #064CEE",
"u. c #0A4EEC",
"i. c #0E51E9",
"p. c #044CF5",
"a. c #024DFE",
"s. c #6E8288",
"d. c #7A8C8A",
"f. c #829182",
/* pixels */
"a.a.a.a.a.a.a.a.a.p.p.a.a.a.a.a.a.a.a.a.p.p.p.p.p.p.p.a.p.a.p.p.a.a.a.a.a.a.a.a.a.a.a.p.a.p.p.p.p.p.p.a.p.p.a.p.p.a.p.a.",
"a.a.a.a.a.a.a.a.p.a.a.a.a.a.p.a.a.a.a.a.a.p.a.p.p.a.p.p.p.p.a.p.a.a.a.a.a.a.a.a.a.a.a.a.p.p.p.a.p.a.p.p.p.p.p.p.p.p.p.a.",
"a.a.a.a.a.a.a.a.a.a.a.a.a.a.a.a.a.a.a.a.a.p.a.a.p.p.p.p.p.p.p.p.a.p.a.a.a.a.a.a.a.a.a.a.a.p.p.a.p.a.p.a.p.a.a.p.a.p.a.a.",
"a.a.a.a.a.p.a.a.a.a.a.a.a.a.a.a.a.a.p.a.a.a.a.a.p.a.p.a.p.a.p.p.a.a.a.a.a.p.a.a.a.a.a.a.a.a.a.a.p.p.p.p.p.p.p.p.p.p.a.a.",
"a.a.a.a.a.a.a.a.a.p.a.a.a.a.a.a.a.a.a.a.a.a.a.a.a.p.a.p.a.p.p.a.a.a.a.a.a.a.a.a.a.a.a.a.a.a.a.a.p.p.a.p.p.p.p.a.p.p.a.a.",
"a.a.a.a.a.a.a.a.a.a.a.a.a.a.a.a.a.a.a.a.a.a.a.a.p.p.p.p.p.p.p.p.a.a.a.p.a.p.a.p.a.a.a.a.p.a.a.a.a.p.p.p.a.p.p.p.p.a.p.a.",
"a.a.a.a.a.p.a.a.a.a.a.a.p.a.a.a.a.a.a.a.a.a.a.a.p.p.a.p.p.a.p.a.a.a.a.a.a.a.a.a.p.a.a.a.a.a.a.a.p.p.a.p.a.p.p.p.a.a.a.a.",
"a.a.a.a.a.a.a.p.a.a.a.a.a.a.a.a.a.a.a.p.a.a.p.a.a.p.p.p.p.p.p.p.a.a.a.a.a.a.a.a.a.a.a.a.a.a.a.a.a.p.p.a.p.p.p.a.a.a.a.a.",
"a.a.a.a.a.a.a.a.a.a.a.a.a.a.a.a.a.a.a.a.a.a.a.a.p.p.p.p.a.p.a.p.a.a.a.a.a.a.a.a.a.a.a.a.a.a.a.a.p.a.p.a.a.a.a.p.a.p.p.a.",
"a.a.a.a.a.a.a.a.a.p.a.a.a.a.p.a.a.a.a.a.a.a.a.a.a.p.p.p.p.p.p.p.a.a.a.a.a.a.a.a.a.a.a.a.p.a.a.a.p.p.a.p.a.a.a.a.p.p.a.a.",
"a.a.a.a.p.a.a.p.a.a.a.a.a.a.a.a.a.a.a.a.a.a.a.a.p.a.p.a.p.a.a.p.a.a.a.a.a.p.a.a.p.a.a.p.a.a.a.a.a.p.a.a.a.a.a.a.p.p.a.a.",
"a.a.a.a.a.a.a.a.a.a.a.a.a.a.a.a.a.a.a.a.y.7.9.a.p.a.p.p.p.p.p.p.a.a.a.a.a.a.a.a.a.a.a.a.a.a.a.a.p.p.a.a.a.a.a.p.a.p.a.a.",
"a.a.a.a.a.a.a.a.a.p.a.a.a.a.y.>.;.>.u.@.F L K Z 0.a.a.a.a.p.a.a.p.a.a.a.p.a.a.a.a.a.a.a.a.p.a.a.p.a.a.a.a.p.a.a.a.p.a.a.",
"a.a.a.a.a.a.a.a.a.a.a.a.a.t.S R j f m _ ( k l k m 0.a.a.p.p.p.2.+.o.u.a.a.a.a.a.a.a.a.a.a.a.a.a.a.a.a.a.a.a.a.a.a.a.a.a.",
"a.a.a.a.a.a.a.a.a.a.a.a.5.f.~ W l l k ( W k k k j C o.;.C =.* P j d V 0.a.a.a.a.a.a.a.a.a.a.a.a.a.a.a.a.a.a.a.a.a.a.a.a.",
"a.a.a.a.a.a.a.a.a.a.6.* J R W k l l l k W k k W k j s a h h R R l l l B u.a.a.a.a.a.p.a.a.a.a.a.a.a.a.a.a.a.a.a.a.a.a.a.",
"a.a.a.a.a.a.a.a.a.0.G ) ( l l l l l l l l l k a f ^ l k i j l l l l l p &.p.a.a.a.a.a.a.a.p.a.a.a.a.a.a.a.a.a.a.a.a.a.a.",
"a.a.a.a.a.a.a.a.p.A ) ^ l l l l l k l l l l p w ~ ^ l l d w t d l l l g b u.a.a.a.a.a.a.a.a.a.a.a.a.a.a.a.a.a.a.i.a.a.a.",
"a.a.a.a.a.a.a.a.w.Y / l l l l l l l l l l j w u ) l l l j p d i k l l d e Z y.a.a.a.a.a.a.a.a.a.a.i.a.a.a.a.i.a.a.a.a.a.",
"a.a.a.a.a.a.a.a.-./ l l l l l l l l l l j t 0 p / l l l l l l k k l l a d k -.a.a.a.a.a.a.a.a.a.a.a.a.a.i.a.a.a.a.a.a.a.",
"a.a.a.a.a.a.a.t.F ^ l j a d k l l l l k d a r t l l l l l l l l l l l h l l D p.a.a.a.a.a.a.a.a.a.a.a.a.a.a.a.a.a.a.a.a.",
"a.a.a.a.a.a.w.F j l k t w d k l l k l k l l j r h l l h p k k l l l l l l l J t.a.a.a.a.a.a.a.a.a.a.a.a.a.a.a.a.a.a.a.a.",
"a.a.a.a.a.w.P / l l l p t l l l l l / / ^ l l h j ^ l p 0 i k l l l l l l l u &.p.a.a.a.a.a.a.p.a.a.a.a.a.a.a.a.a.a.i.a.",
"a.a.a.a.y.H ' l l l l k i k l l l ^ ( ^ l l l / ) ^ l k p w d l l l l l l l d s 1.a.a.a.a.a.a.a.a.a.a.i.i.a.a.a.a.a.a.a.",
"a.a.a.a.#.! / l a l l k t k l l j l l l l l ^ ` ^ l l k l t p l l l l l l j k l D i.a.a.a.a.a.a.a.a.a.a.a.a.a.a.a.a.a.a.",
"a.a.a.a.d.^ l g p l l h t k k a d l l l l l ) ) l l l l l p t l l l k l l l l l T r.a.a.a.a.a.a.a.a.i.8.1.<.e.p.a.a.a.a.",
"a.a.a.p.V l l l i j k t d l g t j l l k l l / l l l l l l d t l l l l l l l l l j d.#.q.w.w.w.q.s.s.D I f f f s.a.a.a.a.",
"a.a.a.p.D l l l k j j j l l g E ) l l l l k l l l l l l l a t l l l l l k k l l l k h s U U T s ~ Q l l j y n V i.i.a.a.",
"a.a.a.p.F l l l l l k l l l l ' ) l l l l p k l l l l j p t t l k k l l j t a j j l l l l l l l l h t y v +.7.& i.a.a.a.",
"a.a.a.a.d.l l l l l l l k l l ` ( l l l l d t d l l l j t 0 w i a k l k k d q a p j j k g d t t q 6 c O.u.a.5.} a.a.a.a.",
"a.a.a.a.<.i a j l l l l p h l l l l l l l j w w j j l l g q 0 0 t l j t w t 0 t w t q q 0 0 8 3 $ X.u.a.a.a.p.p.a.a.a.a.",
"a.a.a.a.0.n t i l l l l w p l l l l l l l ^ ^ k k t t j j 0 0 0 p l t 0 0 0 0 0 0 8 1 2 : # %.7.p.a.a.a.a.a.a.a.a.a.a.i.",
"a.a.a.a.a.=.9 q a l l t w a l d i a k j l ` ^ l l f w t a 9 0 0 i a w 0 9 6 0 8 1 z { 3.5.a.a.a.a.a.i.a.a.a.a.a.a.a.a.a.",
"a.a.a.a.a.i.% 7 0 t t t d ^ l l d t t g l ^ l l l a w t t 0 0 0 t t 0 0 9 1 6 5 X 2.a.a.a.a.a.a.a.a.a.a.a.a.a.a.a.a.a.i.",
"a.a.a.a.a.a.p.& 9 0 0 t / / l l l a i l l l l l l d 0 0 0 0 0 0 0 0 0 0 0 4 , > | a.a.a.a.a.a.a.a.a.a.a.a.a.a.a.a.a.a.a.",
"a.a.a.a.a.a.a.*.9 0 0 f ( l l l l l g l l l l l l h 0 0 0 0 0 0 0 0 0 0 0 6 > O y.p.a.a.a.a.a.a.a.a.a.a.a.a.i.a.a.a.a.a.",
"a.a.a.a.a.a.a.:.9 0 q h l l l l l l l l l l g l l h 0 0 0 0 0 0 9 0 0 0 0 6 - 7.a.a.a.a.a.a.a.a.a.a.a.i.a.a.a.a.a.a.a.a.",
"a.a.a.a.a.a.a.r.7 0 q h l l l l l l l l l l t t l p 0 0 0 0 0 0 9 6 0 0 0 5 . u.a.a.a.a.a.a.a.a.a.a.a.a.a.a.a.i.i.a.a.a.",
"a.a.a.a.a.a.a.u.M 0 q d l l l l l l l l l j t 6 t w 0 0 0 8 0 0 0 4 6 9 8 , ] a.a.a.a.a.a.a.a.a.a.a.i.a.a.a.a.a.a.a.a.a.",
"a.a.a.a.a.a.a.a.8.x 6 t d j l j g l l l l k t 0 9 9 0 0 0 6 8 0 0 5 , > - + u.a.a.a.a.a.a.a.a.a.a.a.a.a.a.a.a.a.a.a.a.a.",
"a.a.a.a.a.a.a.a.a.9.X.$.u t h d t l l l l h w 0 0 0 0 0 0 5 6 w 0 9 > [ 0.a.a.a.a.a.a.a.a.a.a.a.a.a.a.a.a.a.a.a.a.a.a.a.",
"a.a.a.a.a.a.a.a.a.a.a.p.A t w w q a l l l t 0 0 8 0 0 0 0 1 5 w 0 6 . i.a.a.a.a.a.a.a.a.a.a.a.a.a.a.a.a.a.a.a.a.a.a.a.a.",
"a.a.a.a.a.a.a.a.a.a.a.a.i.$.N $ z q t t y 0 0 9 4 0 0 0 5 = ; 1 < - ..a.a.a.a.a.a.a.a.a.a.a.a.a.a.a.a.a.a.i.a.a.a.a.a.a.",
"a.a.a.a.a.a.a.a.a.a.a.a.a.a.p.a. .3 0 y 8 0 0 4 , 4 4 1 = O r.,.[ 4.a.a.a.a.a.a.a.a.a.a.a.a.a.a.a.a.i.a.a.a.a.a.i.a.a.a.",
"a.a.a.a.a.a.a.a.a.a.a.a.a.a.a.a.a.%.2 6 0 6 2 # ] #   o 1.i.a.a.a.a.a.a.a.a.a.a.a.a.a.a.a.a.a.a.a.a.a.a.a.a.a.a.a.a.a.a.",
"a.a.a.a.a.a.a.a.a.a.a.a.a.a.a.a.a.a. .o . @ | i.i.a.i.p.a.a.a.a.a.a.a.a.a.a.a.a.a.a.a.a.a.a.a.a.a.a.a.a.a.a.a.a.a.a.a.a.",
"a.a.a.a.a.a.a.a.a.a.a.a.a.a.a.a.a.a.a.a.y.a.a.a.a.a.a.a.i.a.a.a.a.a.a.a.a.a.a.a.a.a.a.a.a.a.a.a.a.a.a.a.a.a.a.a.a.a.a.a.",
"a.a.a.a.a.a.a.a.a.a.a.a.a.a.a.a.a.a.a.a.a.a.a.a.a.a.a.a.a.a.a.a.a.a.a.a.a.a.a.a.a.a.a.a.a.a.a.a.a.a.a.a.a.a.a.a.a.a.a.a.",
"a.a.a.a.a.a.a.a.a.a.a.a.a.a.a.a.a.a.i.a.a.a.a.a.a.a.i.a.a.a.a.a.a.a.a.a.a.a.a.a.a.a.a.a.a.a.a.a.a.a.a.a.a.a.a.a.a.a.a.a.",
"a.a.a.a.a.a.a.a.a.a.a.a.a.a.a.a.a.a.a.a.a.a.a.a.a.a.a.a.a.a.a.a.a.a.a.a.a.a.a.a.a.a.a.a.a.a.a.a.a.a.a.a.i.a.a.a.a.a.a.a.",
"a.a.a.a.a.a.a.a.a.a.a.a.a.a.a.a.a.a.a.a.a.a.a.a.a.a.a.a.a.a.a.a.a.a.a.a.a.a.a.a.a.a.a.a.a.a.a.a.a.a.a.a.a.a.a.a.a.a.a.a.",
"a.a.a.a.a.a.a.a.a.a.a.a.a.a.a.a.a.a.a.a.a.a.a.a.a.a.a.a.a.a.i.a.a.a.a.a.a.a.a.a.a.a.a.a.a.a.a.a.a.a.a.a.a.a.a.a.a.a.a.a.",
"a.a.a.a.a.a.a.a.a.a.a.a.a.a.a.a.a.a.a.a.a.a.a.a.a.a.a.i.a.a.a.i.a.a.a.a.a.a.a.a.a.a.a.a.a.a.a.a.a.a.a.a.a.a.a.a.a.a.a.a.",
"a.a.a.a.a.a.a.a.a.a.a.a.a.a.a.a.a.a.a.a.a.a.a.a.a.a.a.a.a.a.a.a.a.a.a.a.a.a.a.a.a.a.a.a.a.a.a.a.a.a.a.a.a.a.a.a.a.a.a.a.",
"a.a.a.a.a.a.a.a.a.a.a.a.a.a.a.a.a.a.a.a.a.a.a.a.a.a.i.a.a.a.a.a.a.a.a.a.a.a.a.a.a.a.a.a.a.a.a.a.a.a.a.a.a.a.a.a.a.a.a.a.",
"a.a.a.a.a.a.a.a.a.a.a.a.a.a.a.a.a.a.a.a.a.a.a.a.a.a.a.a.a.a.a.a.a.a.a.a.a.a.a.a.a.a.a.a.a.a.a.a.a.a.a.a.a.a.a.a.a.a.a.a.",
"a.a.a.a.a.a.a.a.a.a.a.a.a.a.a.a.a.a.a.a.a.a.a.a.a.a.a.a.a.a.a.a.a.a.a.a.a.a.a.a.a.a.a.a.a.a.a.a.a.a.a.a.a.a.a.a.a.a.i.a.",
"a.a.a.a.a.a.a.a.a.a.a.a.a.a.a.a.a.a.a.a.a.a.a.a.a.a.a.a.a.a.a.a.a.a.a.a.a.a.a.a.a.a.a.a.a.a.a.a.a.a.a.a.a.a.a.a.a.a.a.a.",
"a.a.a.a.a.a.a.a.a.a.a.a.a.a.a.a.a.a.a.i.a.a.a.a.a.a.a.a.a.a.a.a.a.a.a.a.a.a.a.a.a.a.a.a.a.a.a.a.a.a.a.a.a.a.a.a.a.a.a.a.",
"a.a.a.a.a.a.a.a.a.a.a.a.a.a.a.a.a.a.a.a.a.a.a.a.a.a.a.a.a.a.a.a.a.a.a.a.a.a.a.a.a.a.a.a.a.a.a.a.a.a.a.a.a.a.a.a.a.a.a.a."
};
