/* XPM */
static char *_9068533a20b4556a107b9a446899c0fNcII5r70MazAztuJ[] = {
/* columns rows colors chars-per-pixel */
"60 60 219 2 ",
"   c #030201",
".  c #000102",
"X  c #010202",
"o  c #020202",
"O  c #0A0301",
"+  c #0B0503",
"@  c #0E0803",
"#  c #02020D",
"$  c #0C0C0A",
"%  c #150202",
"&  c #130A01",
"*  c #12120E",
"=  c #010513",
"-  c #010115",
";  c #171712",
":  c #1C1C17",
">  c #200301",
",  c #270401",
"<  c #360301",
"1  c #33030D",
"2  c #211001",
"3  c #21120C",
"4  c #271B0D",
"5  c #321100",
"6  c #391E00",
"7  c #33120D",
"8  c #321E12",
"9  c #21211B",
"0  c #25251F",
"q  c #020223",
"w  c #130823",
"e  c #17002E",
"r  c #000036",
"t  c #050E38",
"y  c #28082A",
"u  c #2A2A23",
"i  c #2E2E27",
"p  c #352535",
"a  c #420400",
"s  c #4B0500",
"d  c #460B00",
"f  c #580600",
"g  c #560D00",
"h  c #5C1501",
"j  c #6A0600",
"k  c #671400",
"l  c #761500",
"z  c #781100",
"x  c #7A1F01",
"c  c #740417",
"v  c #422400",
"b  c #452501",
"n  c #522C06",
"m  c #563E01",
"M  c #42281C",
"N  c #4A2A1E",
"B  c #56231F",
"V  c #563212",
"C  c #673A03",
"Z  c #733100",
"A  c #463221",
"S  c #553422",
"D  c #633924",
"F  c #694600",
"G  c #764210",
"H  c #574C3A",
"J  c #794922",
"K  c #6E4437",
"L  c #754634",
"P  c #704D31",
"I  c #000043",
"U  c #010149",
"Y  c #05074B",
"T  c #000152",
"R  c #00005A",
"E  c #281342",
"W  c #2B2042",
"Q  c #000063",
"!  c #03066E",
"~  c #001262",
"^  c #001C6B",
"/  c #000179",
"(  c #001F7A",
")  c #2D056B",
"_  c #4B0245",
"`  c #430A4F",
"'  c #4C2A4D",
"]  c #6E2549",
"[  c #4A0D66",
"{  c #4A2479",
"}  c #583272",
"|  c #7E706B",
" . c #8A0E00",
".. c #8F0D09",
"X. c #900600",
"o. c #950900",
"O. c #9B0D00",
"+. c #A51400",
"@. c #AB1800",
"#. c #A91C00",
"$. c #B41C00",
"%. c #852000",
"&. c #8D2100",
"*. c #9A2500",
"=. c #903600",
"-. c #B52300",
";. c #BB2100",
":. c #BE2400",
">. c #B72D06",
",. c #B83000",
"<. c #872E2C",
"1. c #A73531",
"2. c #CB2B00",
"3. c #C33700",
"4. c #D73200",
"5. c #D73700",
"6. c #DA3600",
"7. c #874C01",
"8. c #804E07",
"9. c #934E05",
"0. c #AA4400",
"q. c #B34700",
"w. c #B95A00",
"e. c #B84C18",
"r. c #9E6800",
"t. c #BD6E00",
"y. c #A87600",
"u. c #B97800",
"i. c #8F5327",
"p. c #995825",
"a. c #845032",
"s. c #9B5C35",
"d. c #A15F29",
"f. c #956135",
"g. c #A66225",
"h. c #B46E22",
"j. c #A46534",
"k. c #B76C3D",
"l. c #B67837",
"z. c #C84700",
"x. c #D94200",
"c. c #DC4100",
"v. c #C85700",
"b. c #DA5B00",
"n. c #E35200",
"m. c #E35A00",
"M. c #CF6100",
"N. c #DD6A00",
"B. c #C67900",
"V. c #D67400",
"C. c #E46300",
"Z. c #E66D00",
"A. c #EA6E00",
"S. c #EC7500",
"D. c #E57F00",
"F. c #ED7C00",
"G. c #F17D00",
"H. c #8B304B",
"J. c #8E5C41",
"K. c #986C51",
"L. c #A66645",
"P. c #B36B49",
"I. c #BB7842",
"U. c #BE7554",
"Y. c #987061",
"T. c #CB7C5A",
"R. c #BA8400",
"E. c #D89100",
"W. c #E58300",
"Q. c #EE8400",
"!. c #EF8B00",
"~. c #F08E00",
"^. c #F59500",
"/. c #F29C00",
"(. c #F4A400",
"). c #F6AD00",
"_. c #F9AF00",
"`. c #F9B300",
"'. c #B5896B",
"]. c #C58956",
"[. c #D38D58",
"{. c #D29253",
"}. c #C88D6B",
"|. c #DC9467",
" X c #E59D6E",
".X c #E79E72",
"XX c #DDA46C",
"oX c #DFA370",
"OX c #EEA976",
"+X c #F6B57D",
"@X c #070287",
"#X c #01008A",
"$X c #00098F",
"%X c #000095",
"&X c #000D95",
"*X c #00009B",
"=X c #1C1198",
"-X c #00218A",
";X c #002892",
":X c #313199",
">X c #0002A8",
",X c #0113AE",
"<X c #000BB4",
"1X c #022BB5",
"2X c #343CB3",
"3X c #513382",
"4X c #4E4BA9",
"5X c #0023CC",
"6X c #0034C3",
"7X c #0028D6",
"8X c #0135D9",
"9X c #003FDC",
"0X c #2B43C3",
"qX c #0044F5",
"wX c #004CFF",
"eX c #886893",
"rX c #ADA7AB",
"tX c #DAAC94",
"yX c #ECCAB0",
/* pixels */
"wXwXwXwXwXwXwXwXwXwXwXwXwXwXwXwXwXwXwXwXwXwXwXwXwXwXwXwXwXwXwXwXwXwXwXwXwXwXwXwXwXwXwXwXwXwXwXwXwXwXwXwXwXwXwXwXwXwXwXwX",
"wXwXwXwXwXwXwXwXwXwXwXwXwXwXwXwXwXwXwXwXwXwXwXwXwXwXwXwXwXwXwXwXwXwXwXwXwXwXwXwXwXwXwXwXwXwXwXwXwXwXwXwXwXwXwXwXwXwXwXwX",
"wXwXwXwXwXwXwXwXwXwXwXwXwXwXwXwXwXwXwXwXwXwXwXwXwXwXwXwXwXwXwXwXwXwXwXwXwXwXwXwXwXwXwXwXwXwXwXwXwXwXwXwXwXwXwXwXwXwXwXwX",
"wXwXwXwXwXwXwXwXwXwXwXwXwXwXwXwXwXwXwXwXwXwXwXwXwXwXwXwXwXwXwXwXwXwXwXwXwXwXwXwXwXwXwXwXwXwXwXwXwXwXwXwXwXwXwXwXwXwXwXwX",
"wXwXwXwXwXwXwXwXwXwXwXwXwXwXwXwXwXwXwXwXwXwXwXwXwXwXwXwXwXwXwXwXwXwXwXwXwXwXwXwXwXwXwXwXwXwXwXwXwXwXwXwXwXwXwXwXwXwXwXwX",
"wXwXwXwXwXwXwXwXwXwXwXwXwXwXwXwXwXwXwXwXwXwXwXwXwXwXwXwXwXwXwXwXwXwXwXwXwXo wXwXwXwXwXwXwXwXwXwXwXwXwXwXwXwXwXwXwXwXwXwX",
"wXwXwXwXwXwXwXwXwXwXwXwXwXwXwXwXwXwXwXwXwXwXwXwXwXwXwXwXwXwXwXwXwXwXwXwXwXo o o wXwXwXwXwXwXwXwXwXwXwXwXwXwXwXwXwXwXwXwX",
"wXwXwXwXwXwXwXwXwXwXwXwXwXwXwXwXwXwXwXwXwXwXwXwXwXwXwXwXwXwXwXwXwXwXwXwXwXo ; : o wXwXwXwXwXwXwXwXwXwXwXwXwXwXwXwXwXwXwX",
"wXwXwXwXwXwXwXwXwXwXwXwXwXwXwXwXwXwXwXwXwXwXwXwXwXwXwXwXwXwXwXwXwXwXwXwXwXo : 9 o wXwXwXwXo wXwXwXwXwXwXwXwXwXwXwXwXwXwX",
"wXwXwXwXwXwXwXwXwXwXwXwXwXwXwXwXwXwXwXwXwXwXwXwXwXwXwXwXwXwXwXwXwXwXwXwXo o o : 9 o wXwXo o wXwXwXwXwXwXwXwXwXwXwXwXwXwX",
"wXwXwXwXwXwXwXwXwXwXwXwXwXwXwXwXwXwXwXwXwXwXwXwXwXwXwXwXwXwXwXwXwXwXwXwXo o o ; u o wXo o : * wXwXwXwXwXwXwXwXwXwXwXwXwX",
"wXwXwXwXwXwXwXwXwXwXwXwXwXwXwXwXwXwXwXwXwXwXwXwXwXwXwXwXwXwXwXo wXo o o : * o o ; 9 o o o 0 ; o wXwXwXwXwXwXwXwXwXwXwXwX",
"wXwXwXwXwXwXwXwXwXwXwXwXwXwXwXwXwXwXwXwXwXwXwXwXwXwXwXwXwXwXwXo $ u 0 0 ; # o o $ u o o o 0 ; o wXwXwXwXwXwXwXwXwXwXwXwX",
"wXwXwXwXwXwXwXwXwXwXwXwXwXwXwXwXwXwXwXwXwXwXwXwXwXwXwXwXwXwXwX$ : $ $ $ o o o o o $ o o o 0 ; o wXwXwXwXwXwXwXwXwXwXwXwX",
"wXwXwXwXwXwXwXwXwXwXwXwXwXwXwXwXwXwXwXwXwXwXwXwXo o o o o o * 9 $ o o o o o o o o o o o : ; $ wXwXwXwXwXwXwXwXwXwXwXwXwX",
"wXwXwXwXwXwXwXwXwXwXwXwXwXwXwXwXwXwXwXwXwXwXwXwXwXwXo : 0 0 u 0 o o o o o o * : o o o o $ o o o o o o wXwXwXwXwXwXwXwXwX",
"wXwXwXwXwXwXwXwXwXwXwXwXwXwXwXwXwXwXwXwXwXwXwXwXwXwXwX* u 9 * $ o o o o o o : i : X X X o o o * ; o wXwXwXwXwXwXwXwXwXwX",
"wXwXwXwXwXwXwXwXwXwXwXwXwXwXwXwXwXwXwXwXwXwXwXwXwXo o : i u * o o o o o b & = 9 u X   X o : 0 : * wXwXwXwXwXwXwXwXwXwXwX",
"wXwXwXwXwXwXwXwXwXwXwXwXwXwXwXwXwXwXwXwXwXwXwXwXwXwXwX* * u : o o o o o a.p.N X 4 b X   o $ * $ wXwXwXwXwXwXwXwXwXwXwXwX",
"wXwXwXwXwXwXwXwXwXwXwXwXwXwXwXwXwXwXwXwXwXwXwXwXwXo o o o o $ 2 b & v & G T.L.V 8 i.+ X o o wXwXwXwXwXwXwXwXwXwXwXwXwXwX",
"wXwXwXwXwXwXwXwXwXwXwXwXwXwXwXwXwXwXwXwXwXwXwXwX2 %.r.y.7.a o N I.C j.| u G k.s.G L.@ o o o wXwXwXwXwXwXwXwXwXwXwXwXwXwX",
"wXwXwXwXwXwXwXwXwXwXwXwXwXwXwXwXo o o wXwXwXwX, f h F b.G.B.m A [.k.T.rXrXH C g.s.N     o wXwXwXwXwXwXwXwXwXwXwXwXwXwXwX",
"wXwXwXwXwXwXwXwXwXwXwXwXwXwXwX& n J.P 8 o wXwXO 1 R Q [ e.^.E.7.B D T.tXtXK.K.XX}.6 o wXwXwXwXwXwXwXwXwXwXwXwXwXwXwXwXwX",
"wXwXwXwXwXwXwXwXwXwXwXwXwXwXwX8 {.+XOXJ 2 wXwX- / 5X7X>X) h./.p.Y K S OXOXOX+XOXI.i.+ wXwXwXwXwXo o o wXwXwXwXwXwXwXwXwX",
"wXwXwXwXwXwXwXwXwXwXwXwXwXwXwX8 |.+X+X XV o r ! 7XqXqX7X<X] z.>.] } <.L }.yXyX'.p.N o wXwXwXwXA D b v o wXwXwXwXwXwXwXwX",
"wXwXwXwXwXwXwXwXwXwXwXwXwXwXwX3 p.{.].l.A o p eX4X5XqX5X>X_ $.6.1.5X3XK D U.tXY.B a O o wXwXo K {.9.I.L 3 wXwXwXwXwXwXwX",
"wXwXwXwXwXwXwXwXwXwXwXwXwXwXwX& b p.g.9.5 A '.+X[.' 1X*X*X_ +.2.>.{ %X3XA V S B s 1 I # wXwXo V h.l.|.U.3 wXwXwXwXwXwXwX",
"wXwXwXwXwXwXwXwXwXwXwXwXwXwXwXwXo p } A 6 G [.+X{.7.@X>X) c X.+.2...@X*X) w 5  .j q #X- wXwXo v g. X XU.3 wXwXwXwXwXwXwX",
"wXwXwXwXwXwXwXwXwXwXwXwXwXwXwXwX- #X*X' j.l.I.|.P.n _ _ ..;.+.O.#. ._ #X*X_ *. .1 Q #X- wXwXI w J  X|.p.3 wXwXwXwXwXwXwX",
"wXwXwXwXwXwXwXwXwXwXwXwXwXwXwXwX- Y { }.+X.XI.i.S % d +.m.G.x.+.X.X.X._ ` .. .y Q #XW b & o R / E D D v & wXwXwXwXwXwXwX",
"wXwXwXwXwXwXwXwXwXwXwXwXwXwXwXwXwXO i.[.{.f.S 6 wXwXo h 8.M.G.b.$.$.o.o.o.j , I @X' d.7.P 4 Q <X,X^ o o wXwXwXwXwXwXwXwX",
"wXwXwXwXwXwXwXwXwXwXwXwXwXwXwXwXwXwXv D n 2 o wXwXwXo r I M Z 7.x l f s s , o r y 7.g.I.|.J.E ;X9X( wXwXwXwXwXwXwXwXwXwX",
"wXwXwXwXwXwXwXwXwXwXwXwXwXwXwXwXwXwXwXo o wXwXwXwXO < Y R T ~ ( ( ( T # o wXwXwX2 n d.|.T.T.a.y ^ wXwXwXwXwXwXwXwXwXwXwX",
"wXwXwXwXwXwXwXwXwXwXwXwXwXwXwXwXwXwXwXwXwXwXwX% a k @.z a e ! ;X;X-XR # o wXwXwXwX2 d.T.T.k.G 6 wXwXwXwXwXwXwXwXwXwXwXwX",
"wXwXwXwXwXwXwXwXwXwXwXwXwXwXwXwXwXwXwXwXwX, a x v.Z.Z.Z.b.=.k g a a a F h d , wXo + b P P V 2 wXwXwXwXwXwXwXwXwXwXwXwXwX",
"wXwXwXwXwXwXwXwXwXwXwXwXwXwXwXwXwXwXwX< s =.b.F._._._.!.V.z.:.#.O.#.-.N.S.b.9.F F g < o o o wXwXwXwXwXwXwXwXwXwXwXwXwXwX",
"wXwXwXwXwXwXwXwXwXwXwXwXwXwXwXwXwX< g 0.N.~.`.`.`.`._.F.v.,.+.X.O.:.6.C.(.`.`.`./.N.q.k a % wXwXwXwXwXwXwXwXwXwXwXwXwXwX",
"wXwXwXwXwXwXwXwXwXwXwXwXwXwXwX% d 0.N./.`.`.`.`.`.).~.!.Q.m.$.o.O.$.6.S.Q.Q.Q.^.`.`.).A.w.k > wXwXwXwXwXwXwXwXwXwXwXwXwX",
"wXwXwXwXwXwXwXwXwXwXwXwXwXwXwX, ,.(.`.`._./.F.Q.Q.G.6.6.2.#.l f j &.:.4.6.6.n.Q.`.`.`.`.`.v.s o wXwXwXwXwXwXwXwXwXwXwXwX",
"wXwXwXwXwXwXwXwXwXwXwXwXwXwX2 k 5.Q.).`.`.!.n.4.-.&.&.&.k < o o o O f %.&.&.q.W.^.`.`.~.Q.5.h o wXwXwXwXwXwXwXwXwXwXwXwX",
"wXwXwXwXwXwXwXwXwXwXwXwXwX5 x 4.6.6.F.Q.Q.W.w.%.f O o o o wXwXwXwXwXo o o o < z =.u.V.5.5.4.k o wXwXwXwXwXwXwXwXwXwXwXwX",
"wXwXwXwXwXwXwXwXwXwXwXwX> z 6.4.6.6.6.m.q.z a o o wXwXwXwXwXwXwXwXwXwXwXwXwXwXo O d 0.6.5.6.h o wXwXwXwXwXwXwXwXwXwXwXwX",
"wXwXwXwXwXwXwXwXwXwX, , j 2.6.4.6.6.m.u.C o wXwXwXwXwXwXwXwXwXwXwXwXwXwXwXwXwXwX5 w./.x.4.6.h o wXwXwXwXwXwXwXwXwXwXwXwX",
"wXwXwXwXwXwXwXwXwXO  .o.-.4.6.6.6.m.V.v wXwXwXwXwXwXwXwXwXwXwXwXwXwXwXwXwXwXwXwXn `.(.x.6.4.l % wXwXwXwXwXwXwXwXwXwXwXwX",
"wXwXwXwXwXwXwXwXwXo 0.2.:.6.6.6.C.D.%., wXwXwXwXwXwXwXwXwXwXwXwXwXwXwXwXwXwXwX% n W.).C.6.c.3.k o wXwXwXwXwXwXwXwXwXwXwX",
"wXwXwXwXwXwXwXwXwX+ t.S.c.4.c.A.(.,., wXwXwXwXwXwXwXwXwXwXwXwXwXwXwXwXwXwXwXo d #.v._.`.S.B.0.k wXwXwXwXwXwXwXwXwXwXwXwX",
"wXwXwXwXwXwXwXwXwXq x V.S.n.S._.W.x % wXwXwXwXwXwXwXwXwXwXwXwXwXwXwXwXwXwXwXwXd 0.u.R.R.R.N - o wXwXwXwXwXwXwXwXwXwXwXwX",
"wXwXwXwXwXwXwXwX- $Xy %.w.R.R.u.*.> wXwXwXwXwXwXwXwXwXwXwXwXwXwXwXwXwXwXwXwXwXwXo q q t 7 ! I o wXwXwXwXwXwXwXwXwXwXwXwX",
"wXwXwXwXwXwXwXwXY 9Xs.B r # + O O wXwXwXwXwXwXwXwXwXwXwXwXwXwXwXwXwXwXwXwXwXwXq I %X<X8X1.[ I o wXwXwXwXwXwXwXwXwXwXwXwX",
"wXwXwXwXwXwXwXY 9X0XH.:X,XU o wXwXwXwXwXwXwXwXwXwXwXwXwXwXwXwXwXwXwXwXwXwXwXwXr %X>X8X8X1.[ I o wXwXwXwXwXwXwXwXwXwXwXwX",
"wXwXwXwXwXwXU ,X2XH.) $XU wXwXwXwXwXwXwXwXwXwXwXwXwXwXwXwXwXwXwXwXwXwXwXwXwXo I >X>X<X,XH.[ E q q wXwXwXwXwXwXwXwXwXwXwX",
"wXwXwXwXq Y ,X2XH.=X<XI wXwXwXwXwXwXwXwXwXwXwXwXwXwXwXwXwXwXwXwXwXwXwXwXwXwXo r $X6X6X6X6X] _ / U o wXwXwXwXwXwXwXwXwXwX",
"wXwXwXo r &X:X<.1X9X1XY wXwXwXwXwXwXwXwXwXwXwXwXwXwXwXwXwXwXwXwXwXwXwXwXwXwXwXo # = = = - + o # o o wXwXwXwXwXwXwXwXwXwX",
"wXwXwXwXo # # O = = $ o wXwXwXwXwXwXwXwXwXwXwXwXwXwXwXwXwXwXwXwXwXwXwXwXwXwXwXwXwXwXwXwXwXwXwXwXwXwXwXwXwXwXwXwXwXwXwXwX",
"wXwXwXwXwXwXwXwXwXwXwXwXwXwXwXwXwXwXwXwXwXwXwXwXwXwXwXwXwXwXwXwXwXwXwXwXwXwXwXwXwXwXwXwXwXwXwXwXwXwXwXwXwXwXwXwXwXwXwXwX",
"wXwXwXwXwXwXwXwXwXwXwXwXwXwXwXwXwXwXwXwXwXwXwXwXwXwXwXwXwXwXwXwXwXwXwXwXwXwXwXwXwXwXwXwXwXwXwXwXwXwXwXwXwXwXwXwXwXwXwXwX",
"wXwXwXwXwXwXwXwXwXwXwXwXwXwXwXwXwXwXwXwXwXwXwXwXwXwXwXwXwXwXwXwXwXwXwXwXwXwXwXwXwXwXwXwXwXwXwXwXwXwXwXwXwXwXwXwXwXwXwXwX",
"wXwXwXwXwXwXwXwXwXwXwXwXwXwXwXwXwXwXwXwXwXwXwXwXwXwXwXwXwXwXwXwXwXwXwXwXwXwXwXwXwXwXwXwXwXwXwXwXwXwXwXwXwXwXwXwXwXwXwXwX",
"wXwXwXwXwXwXwXwXwXwXwXwXwXwXwXwXwXwXwXwXwXwXwXwXwXwXwXwXwXwXwXwXwXwXwXwXwXwXwXwXwXwXwXwXwXwXwXwXwXwXwXwXwXwXwXwXwXwXwXwX",
"wXwXwXwXwXwXwXwXwXwXwXwXwXwXwXwXwXwXwXwXwXwXwXwXwXwXwXwXwXwXwXwXwXwXwXwXwXwXwXwXwXwXwXwXwXwXwXwXwXwXwXwXwXwXwXwXwXwXwXwX"
};
