/* XPM */
static char *ced048d2a9d94f38db8cb4b95030ef9axF9KrimV0mxz7Ek5[] = {
/* columns rows colors chars-per-pixel */
"60 60 146 2 ",
"   c #361F0C",
".  c #2C250C",
"X  c #262A0D",
"o  c #2B2D0E",
"O  c #36210D",
"+  c #3B230E",
"@  c #332C0D",
"#  c #3A2D0E",
"$  c #2D320F",
"%  c #33310F",
"&  c #3B320F",
"*  c #3E2511",
"=  c #332C11",
"-  c #3C2D13",
";  c #2F3510",
":  c #333510",
">  c #3D3412",
",  c #353A11",
"<  c #3C3D13",
"1  c #41270E",
"2  c #43290D",
"3  c #4A2C0F",
"4  c #45320F",
"5  c #4D310F",
"6  c #54330F",
"7  c #412712",
"8  c #442B15",
"9  c #4A2E16",
"0  c #4A2F18",
"q  c #522F16",
"w  c #512F18",
"e  c #453416",
"r  c #4D3412",
"t  c #443C13",
"y  c #4B3C13",
"u  c #4C3119",
"i  c #4A3B18",
"p  c #543312",
"a  c #5A3612",
"s  c #533B12",
"d  c #5D3A12",
"f  c #543219",
"g  c #5D3518",
"h  c #603B12",
"j  c #6B3F14",
"k  c #603619",
"l  c #623818",
"z  c #3C4113",
"x  c #424314",
"c  c #494116",
"v  c #4B4415",
"b  c #494615",
"n  c #4A4615",
"m  c #434815",
"M  c #434B16",
"N  c #444915",
"B  c #454C16",
"V  c #464D17",
"C  c #484915",
"Z  c #484B15",
"A  c #4F4B16",
"S  c #4B4C16",
"D  c #484E17",
"F  c #4D4D15",
"G  c #4A4318",
"H  c #494C18",
"J  c #524515",
"K  c #544715",
"L  c #5B4013",
"P  c #584414",
"I  c #5C4414",
"U  c #514A16",
"Y  c #534A16",
"T  c #504C16",
"R  c #514E17",
"E  c #5D4A15",
"W  c #4F5217",
"Q  c #495018",
"!  c #4A5118",
"~  c #525417",
"^  c #545717",
"/  c #5D5217",
"(  c #515719",
")  c #545618",
"_  c #5E5618",
"`  c #535919",
"'  c #565818",
"]  c #585818",
"[  c #5A5A18",
"{  c #595D1A",
"}  c #624514",
"|  c #6E4213",
" . c #634B15",
".. c #6F4B15",
"X. c #614619",
"o. c #754516",
"O. c #784716",
"+. c #744D14",
"@. c #7B4916",
"#. c #764F19",
"$. c #635217",
"%. c #695118",
"&. c #645D1A",
"*. c #6B5C1A",
"=. c #735316",
"-. c #7D5115",
";. c #735118",
":. c #755918",
">. c #795818",
",. c #795B18",
"<. c #5C601B",
"1. c #65661B",
"2. c #62661C",
"3. c #6A631B",
"4. c #6D6B1C",
"5. c #7C641A",
"6. c #7F671A",
"7. c #716B1C",
"8. c #796A1C",
"9. c #72711D",
"0. c #77731E",
"q. c #7D701C",
"w. c #78751E",
"e. c #7B761E",
"r. c #7C771E",
"t. c #7C7A1F",
"y. c #814D16",
"u. c #855115",
"i. c #895215",
"p. c #855917",
"a. c #80641A",
"s. c #9C6F1B",
"d. c #82711D",
"f. c #8B711C",
"g. c #85791F",
"h. c #8C781E",
"j. c #9C751D",
"k. c #8A8321",
"l. c #938421",
"z. c #968821",
"x. c #968E23",
"c. c #998F23",
"v. c #9C9424",
"b. c #A49123",
"n. c #A19825",
"m. c #ADA227",
/* pixels */
"z < z x z z z z z z z z z B W d h h h h h h d h h h 6 % $ z < 6 h h h h h h h h 3 + + a d d d h h h h h h h h h h h h h ",
"z y S d s x x t t x z t z B ! d h h h d h h h h a s & , < t s d h h h h h h h h a a 2 q f 6 h h h h h h h h d h h h h h ",
"z x ! F L d d d d h p a c z B F L h h h h h d d & $ , z x 6 d h h h h h a h h h h h h a d 3 d d h h h h h h h h h h h h ",
"t z ( 2.Y h h a a a 2 6 d x z B W I h h d d d & $ , x 6 6 d h h h h h h h h h h h h h >.,.I d d h d L d h h h h h h h h ",
"6 Z e.g.R d d 8 8 a 3 a d c z z M A d d h a & , x Z 6 h h h 6 d a p h h h h h h h h ,.z.m.{ F P I Y ! Y P P d p 6 h k h ",
"t ] b. .R c q 5 6 h h h h d t m 1.R d p h 4 X z F 6 h h h d 1 6 a a h h h h h h h h 8.^ e.' ! S M B B ! Z ! K 6 6 3 2 h ",
"< F a.d s r 3 d a a d a d a y Z 9.Y 9 1 d t , v s a a a d d 3 6 a d d a a a a a h a x < t m M B z z x v B z s d d 2 2 a ",
"t < 6 6 6 6 6 6 6 6 6 6 6 6 6 r t < r 3 6 4 % 4 6 6 6 6 6 6 6 6 6 6 6 6 6 6 6 p 6 6 t z s y t z z z t t z y 5 6 6 6 6 6 ",
"2 % 2 2 1 1 2 2 2 2 2 2 2 7 2 2 * & t 2 2 @ $ > 3 2 1 2 2 2 1 2 7 1 1 1 2 2 2 2 1 1 * - 7 7 8 = & @ # % # 2 2 2 2 2 2 2 ",
"O X .                           O O +     . $ z & @   O                         O                 O                     ",
"4 % & 5 6 p 6 p 2               O O         X , z #   O                         O                       2 p 6 p 6 3 3 3 ",
"a x z v h h h h 3           +   O O   O     O X , , O O     O O           O   O O O           * O       3 h h h h h h h ",
"d z z x d d h h 3   7 q q f p p f q f q w 9 8 = ; z - 8 9 + 7 8 0 8 8 8 8 8 8 8 8 8 9 * * * * u 0 8     9 h h h h a a d ",
"s z z t 6 6 a h 2   7 g @.y.y.y.y.y.y.O.k q 0 - o , e 0 9 9 7 u 0 0 0 0 i i 0 0 9 8 0 u u * * u f f 8   3 h h h h 6 6 d ",
"6 z < 6 a d d h 3   7 p @.i.i.i.i.i.i.i.o.g w 0 = o , e 8 0 u f 0 i z o ; z M y 0 0 8 0 u u u u 8 0 *   3 h h h h a 6 a ",
"5 z < 6 a h a a 3   8 7 o.i.i.i.i.i.i.i.i.o.g f 0 0 > < e 0 0 e 0 i H z o , z : - 0 0 0 0 0 u u 0 * O   3 h h h h 6 t 5 ",
"< o # 6 a d g a 2   8 9 g @.i.i.i.@.i.i.i.i.O.a p q = , e 0 0 0 0 0 i G i i z z i 0 0 0 0 0 8 8 8 8 7 O 3 h h d L s z z ",
", o 5 6 J Y h h 9   8 0 f g @.i.@.h i.y.y.i.u.o.k f - o , e 0 0 0 u u 0 0 e e x i 0 0 0 0 0 0 0 9 u 7 O 3 h h h J x z x ",
"z @ 6 6 s Y d h 2   8 0 - 8 g O.i.i.i.@.O.u.i.i.o.k q * : e 0 0 0 8 - 8 0 0 0 u 0 0 0 0 0 0 0 0 u u 7 O 3 p a d F S x 5 ",
"M o 4 6 y J h p 1   8 u > o e g @.i.i.i.u.i.i.i.i.o.k q - : e 0 u e ; : - 0 0 u u u 8 8 0 0 0 0 9 u 7 O 3 6 6 J B B x 5 ",
"B $ @ 6 y J h 6 +   8 u H , : 8 a @.i.i.i.i.i.i.u.o.j k f o < e 0 - z z > - 0 u u u 8 O * u 0 0 0 0 * O 3 h h Y z z z m ",
"! z % 5 s &.,.J > + 8 9 i B , < q l @.i.i.i.O.O.i.6 o.o.g > : < < ; z z G u 0 0 0 0 0 * * 0 0 0 0 0 * O 3 h 6 v B ! x z ",
"m m @ 6  .n.l.Y e   8 8 0 i G G 8 f l @.i.i.o.O.i.| @.i.o.f = z z z z i x i u 0 0 0 0 0 u 0 0 0 0 0 8 O 5 h 5 s A J y z ",
"z B o & _ v.l.J #   8 7 8 0 e B o 2 f l @.i.i.i.i.i.i.i.i.| $ < e z < 0 e i > - 0 0 0 0 u 0 0 0 u u *   5 h h d Y s 5 z ",
"z B ; $ { k.*.p 7   8 8 7 9 0 i < 8 w f k @.i.i.i.i.i.i.i.@.z t p t < e u i < > e 0 0 0 0 0 0 0 0 0 7   9 h h h L 6 y z ",
"y B B x $.%.p p 2   8 9 8 9 0 0 i 0 0 w g k @.i.i.i.i.i.i.u.x z i f i < e 0 u t : 8 0 0 0 8 0 0 0 0 -   3 h h h } 6 t t ",
"6 s S W y 3 f h 3   9 0 9 0 0 0 0 0 0 0 7 9 k @.i.i.i.i.u.u.v z t g f i < 0 0 e > < u u u u 8 0 8 0 8   3 h h h h 6 t 6 ",
"6 r B z t d h h 3   7 0 9 0 0 0 8 8 8 8 7 7 f k O.i.i.i.u.u...z < i g i < e 0 0 u < e 7 * * * 0 8 0 * O 3 h h h h 6 < s ",
"6 6 z t s h h h 3   7 0 0 0 8 0 * * * O * 0 w q k O.i.i.i.i.u.Z z Y o.g i < t e 0 e 0 8 8 8 O * 7 u 8   3 h h h d 6 t 5 ",
"6 3 $ < 6 h h h 3   8 9 0 * * u u f u u 0 0 0 f q g O.i.i.i.y.+.z E u.o.g u i < u 0 0 0 0 0 9 8 O * +   3 h h 3 + 5 t z ",
"6 5 o % y h h h 8   8 0 0 * 0 f u 0 0 u 0 0 0 9 q p k y.i.i.i.-.( / i.i.o.k f t e 0 0 0 0 0 0 0 0 0 7   6 h h a 3 5 6 z ",
"6 6 4 $ t h h h 8   8 e u 0 0 u 0 0 0 0 0 0 > o 7 f q h y.i.i.a.k.3.-.i.i.o.g t i u 0 0 0 0 0 0 0 0 7   3 h h h d 6 5 < ",
"6 6 4 $ y h h h 3 O 7 G H i 0 0 0 0 0 0 0 0 i , ; e u f k @.i.y.*.k.8.u.i.i.o.s < u 0 0 0 0 0 0 0 0 7   3 d h h h p t z ",
"6 5 o $ x d h h 3 O 8 t M H i i 0 8 0 8 8 - 0 i < o e f f k O.i.#.&.g.-.i.i.i.o.G t q 0 0 0 0 u u 0 8   3 h h h h s z z ",
"6 4 , B t d h a 2   1 e < M H H 8 * 0 0 8 * * 8 i < ; 0 f f g @.#.M ~ 6.i.i.i.i.6.H t f 0 0 0 0 9 8 +   3 h h h a t z z ",
"& $ z z 4 h h 5     1 @ $ < z M e 8 u 0 8 8 8 0 0 i , = - f f g | J ) f.i.i.i.i.h.e.B q q 0 0 9 * * +   3 h h h ,.F < z ",
"X $ z S x d h 6 +   8 - o , z : ; 0 8 0 0 0 0 0 0 0 e ; X - u f g #.2.Y +.i.i.i.;.r.] f g q w 9 0 0 8   3 h h a.k.W z t ",
"o $ , m y h h h 3   8 0 - : ; X = 0 0 0 0 0 0 0 0 0 e e ; X 0 u f I 4.B E i.i.i.i./ 0.#.g f q w 0 0 8   3 6 a 8.<.z < s ",
"& o z B s h h h 3   8 0 0 - - - 0 0 0 0 0 0 0 0 0 0 0 0 u - 0 0 f u m M E i.i.i.j.3.7.p.j k f q q 0 7   3 3 3 Y B x < 5 ",
"5 $ B v 6 h h h 1   8 0 0 0 0 0 0 0 0 0 0 0 > - e 0 0 0 u u 0 0 u t < , I i.i.=.7.) X.i.i.o.k f q 9 8   3 a a J z s t t ",
"2 t B t 6 h h h 3   8 u 0 9 9 0 0 0 0 0 0 e ; o - 0 0 0 0 0 0 0 e < , , y @.u.$.t.5.u.i.i.i.o.g f q 8   3 k h d Z s 5 z ",
"O 5 F v a h h h 8   8 9 0 8 7 0 u 0 0 0 0 e , ; - 0 0 8 0 0 7 u < ; @ - u g o.$.c.s.u.i.i.i.u.o.k p q   3 3 6 h d s 6 z ",
"+ 5 , v a h h h 3   7 9 0 0 u f 0 0 0 u 0 - , z e 0 0 * * O * i , . * 8 u f g G ~ -.i.i.i.i.i.i.o.k 9   3 3 6 h h 6 6 z ",
"O O % Z a d h h 3   8 9 * 8 u u 0 0 0 u 0 > z , - 0 0 0 - 8 8 < = - 8 0 0 9 f f t +.i.i.i.i.i.i.i.o.9   3 3 6 h h a 6 6 ",
"3 O $ S J a d d 8   8 8 * u u u 0 0 0 - o , z z : 8 u 0 0 < < o o 0 0 0 0 0 i x t +.i.i.i.i.i.i.i.@.q   3 d d h h a 6 6 ",
"5 + X $ Y 6 a d 2   8 * u f u u 0 0 0 - ; z z , - 0 0 0 i z : o 0 0 0 0 0 0 i z i g O.i.i.i.i.i.i.@.q   3 h h h h 6 6 t ",
"6 3 @ , K a 6 a 9   8 0 u u u u 0 0 0 0 - o - - - 0 0 u < , = = 0 0 0 0 0 0 e e < i a O.u.i.i.i.i.@.q O 3 h h h h 6 5 z ",
"5 4 $ S J d a a 3   8 u u 0 0 0 0 0 0 0 0 0 0 0 0 0 e < , o e 8 0 8 0 u u 0 0 0 t t i g O.i.i.i.i.@.3 O 3 h h h d 6 2 < ",
"5 @ , N t 6 h 6 2   8 9 9 9 9 0 0 0 9 0 0 9 0 0 9 e t z , @ 9 u - 8 u 0 u 0 9 8 9 t < s g O.u.i.i.@.9   3 h h h a 6 r t ",
"5 % Z x + 2 6 2     1 8 8 8 7 8 8 8 7 8 8 8 8 8 4 , , , X - 7 8 *         O     1 2 & & 9 q j | | h 2   2 6 a h h t z r ",
"# % B < 2                               O O   O % o X . .                             + O O   O   O O       3 6 r & & 2 ",
"+ % B < 2 2 2 2 2 2 2 1 2 2 2 2 1 2 2 2 1 2 1 > $ $ X # 1 2 1   * 1 1 1 1 2 2 1 2 2 2 2 1 # 2 1 2 2 2 2 2 2 2 3 3 3 2 2 ",
"6 z Z t 6 6 6 6 6 6 6 a 6 6 6 6 6 6 6 6 6 6 6 y $ $ @ 6 6 6 6 1 + 6 6 6 p 6 6 6 6 6 6 6 5 t t t z r 6 6 6 a h h d a 6 6 ",
"s ! z t 6 6 d d a a a a a q p a d d d a d a r & o & 6 d d a a q 2 a a a a a a d d 6 d 6 y z z W 4.c a a a a h h a 3 a a ",
"& N < & 6 3 6 h h h h h a a 2 3 d h h h h h v , $ @ a h h h a q 6 h h h h h d h h h d y z s E c.c.v s d h h a a q 1 a h ",
"z Z , @ 6 6 6 h h h h h h a 6 9 6 h h h h d s 4.[ o 5 h h d 3 6 h h h h h d s y v d./ z z x K a.:.s d h h h a a a 6 d h ",
"M S , o # p h h h h h h h h h d a h h h h h d / ^ z % d h a 1 a h h h d s x x z z <.F z z z < t d h h h h h d d h h h h ",
"! z z $ @ d d h h h h h h h h h a h h h h h h y z z $ 5 h d 2 d h h s x x z s s x Z B z z z s z x d h h h h d h h h h h ",
"B z , X # f 5 5 h h h h h d h h h h h h d h h d x z % r h d a d h s x x x d d h d L L x z z x < z y h h h h h d h h h h ",
"B z X @ 5 6 d d h h h h h h h h h h h h h h h h d t z % a h h h d < x d d h h h d h h a d d d J z z s h h h h d h h h h "
};
